#!OML:ASF H:\MichaelJackson\Top Level 1\Subject 1\Session 1\male.ASF
:FULLY-SPECIFIED
:DEGREES
408
root 0.158154 15.3162 -10.8387 20.1272 6.20917 -13.2495
lowerback 5.29125 6.09533 5.98104
upperback 0.405064 8.50489 1.63879
thorax -1.91266 4.19243 -2.15217
lowerneck -7.97311 -4.7499 1.74758
upperneck -2.96852 -6.47107 2.8647
head 0.433395 -3.22202 0.416155
rclavicle -7.58829e-014 3.21224e-014
rhumerus -22.7518 -6.87027 -87.423
rradius 38.6779
rwrist 0.650528
rhand -28.1604 -32.0017
rfingers 7.12502
rthumb -1.54087 298.024
lclavicle -7.58829e-014 3.21224e-014
lhumerus -49.0381 -9.28202 85.8365
lradius 77.4856
lwrist 22.2245
lhand -17.6159 3.35741
lfingers 7.12502
lthumb 8.64098 33.1606
rfemur -1.93453 -3.91201 25.5259
rtibia 20.8556
rfoot -27.8694 -27.5703
rtoes -29.5113
lfemur -69.8128 11.2598 -7.09445
ltibia 59.7494
lfoot -10.6049 -6.62109
ltoes 20.4291
409
root 0.208019 15.3134 -10.7486 20.0593 5.63573 -12.581
lowerback 5.54668 5.9047 5.75209
upperback 0.554367 8.23047 1.05908
thorax -1.86647 4.05969 -2.62476
lowerneck -7.89529 -4.54462 1.78291
upperneck -3.08446 -6.19424 3.3113
head 0.398038 -3.08141 0.557006
rclavicle 8.09054e-014 -5.01931e-014
rhumerus -22.9604 -7.21445 -88.3684
rradius 38.506
rwrist -0.163569
rhand -28.9516 -31.4747
rfingers 7.12502
rthumb -2.30496 298.558
lclavicle 8.09054e-014 -5.01931e-014
lhumerus -47.4872 -8.36062 85.0047
lradius 74.8369
lwrist 22.2524
lhand -18.4034 4.08912
lfingers 7.12502
lthumb 7.881 33.9222
rfemur -1.94596 -3.73069 24.5435
rtibia 21.74
rfoot -27.2795 -28.3719
rtoes -30.9142
lfemur -69.2977 10.9587 -7.7066
ltibia 60.2585
lfoot -11.3748 -6.04193
ltoes 20.5966
410
root 0.260368 15.3191 -10.6587 19.9938 5.00362 -11.8741
lowerback 5.8305 5.7162 5.45531
upperback 0.697788 7.95661 0.475779
thorax -1.85458 3.92713 -3.06824
lowerneck -7.83054 -4.32613 1.8209
upperneck -3.18234 -5.90012 3.68057
head 0.366604 -2.93304 0.674018
rclavicle 2.3556e-014 1.39149e-014
rhumerus -23.2705 -7.14272 -89.3264
rradius 38.4264
rwrist -1.10588
rhand -29.7286 -30.9418
rfingers 7.12502
rthumb -3.05534 299.1
lclavicle 2.3556e-014 1.39149e-014
lhumerus -45.8505 -7.28163 84.1677
lradius 71.893
lwrist 22.4211
lhand -19.3916 4.85898
lfingers 7.12502
lthumb 6.92718 34.7256
rfemur -2.26292 -3.68533 23.493
rtibia 23.1148
rfoot -26.5101 -29.1326
rtoes -32.4308
lfemur -68.697 10.6675 -8.38278
ltibia 60.6347
lfoot -12.0921 -5.42563
ltoes 20.7252
411
root 0.315036 15.3331 -10.5694 19.9275 4.30897 -11.1392
lowerback 6.13792 5.53085 5.09283
upperback 0.833974 7.68339 -0.101173
thorax -1.87588 3.79454 -3.47257
lowerneck -7.77734 -4.08826 1.85816
upperneck -3.25678 -5.5808 3.96781
head 0.340474 -2.77267 0.766368
rclavicle 4.39314e-014 9.93923e-015
rhumerus -23.6462 -6.64912 -90.2856
rradius 38.4048
rwrist -1.99108
rhand -30.4762 -30.4432
rfingers 7.12502
rthumb -3.77736 299.611
lclavicle 4.39314e-014 9.93923e-015
lhumerus -44.2165 -6.046 83.3493
lradius 68.8266
lwrist 22.7475
lhand -20.5955 5.62717
lfingers 7.12502
lthumb 5.76489 35.5287
rfemur -2.92871 -3.76411 22.3741
rtibia 25.0553
rfoot -25.5354 -29.7874
rtoes -33.9622
lfemur -68.0135 10.4028 -9.12073
ltibia 60.8743
lfoot -12.7495 -4.78245
ltoes 20.8189
412
root 0.371697 15.3549 -10.4806 19.8571 3.54897 -10.3878
lowerback 6.46226 5.3486 4.66372
upperback 0.963444 7.40916 -0.660545
thorax -1.92684 3.66103 -3.82425
lowerneck -7.73621 -3.82679 1.92297
upperneck -3.31214 -5.23319 4.13382
head 0.316435 -2.59932 0.817362
rclavicle 1.43125e-014 -5.56597e-015
rhumerus -24.0551 -5.7218 -91.2432
rradius 38.3988
rwrist -2.69044
rhand -31.1899 -30.0073
rfingers 7.12502
rthumb -4.46653 300.06
lclavicle 1.43125e-014 -5.56597e-015
lhumerus -42.6897 -4.68661 82.5676
lradius 65.8539
lwrist 23.2386
lhand -21.8201 6.28093
lfingers 7.12502
lthumb 4.58252 36.2114
rfemur -3.95751 -3.92655 21.1896
rtibia 27.579
rfoot -24.3031 -30.278
rtoes -35.4155
lfemur -67.2524 10.1842 -9.91551
ltibia 60.9815
lfoot -13.3474 -4.13723
ltoes 20.9622
413
root 0.430121 15.3836 -10.3925 19.7837 2.72124 -9.63498
lowerback 6.79059 5.1714 4.17707
upperback 1.08597 7.13539 -1.19762
thorax -1.9987 3.5274 -4.12135
lowerneck -7.69468 -3.54323 2.02211
upperneck -3.35446 -4.85944 4.19056
head 0.291451 -2.41414 0.82953
rclavicle 6.42074e-014 8.34896e-015
rhumerus -24.4597 -4.39628 -92.1955
rradius 38.3812
rwrist -3.01504
rhand -31.8397 -29.728
rfingers 7.12502
rthumb -5.09394 300.353
lclavicle 6.42074e-014 8.34896e-015
lhumerus -41.3396 -3.27618 81.8367
lradius 63.1365
lwrist 23.8644
lhand -22.974 6.75049
lfingers 7.12502
lthumb 3.4682 36.702
rfemur -5.34304 -4.11005 19.9468
rtibia 30.6419
rfoot -22.7133 -30.5498
rtoes -36.7454
lfemur -66.4301 10.0372 -10.7619
ltibia 60.9668
lfoot -13.8857 -3.51331
ltoes 21.1589
414
root 0.490151 15.4184 -10.3044 19.6995 1.83992 -8.90148
lowerback 7.11056 4.99063 3.65012
upperback 1.20817 6.85072 -1.70368
thorax -2.07675 3.38836 -4.36132
lowerneck -7.67285 -3.22991 2.16758
upperneck -3.37231 -4.45156 4.14501
head 0.273053 -2.21258 0.80265
rclavicle -5.1684e-014 1.11319e-014
rhumerus -24.8196 -2.67415 -93.1583
rradius 38.3125
rwrist -3.03385
rhand -32.4157 -29.5158
rfingers 7.12502
rthumb -5.65007 300.58
lclavicle -5.1684e-014 1.11319e-014
lhumerus -40.2132 -1.89588 81.1609
lradius 60.7952
lwrist 24.5723
lhand -23.9151 6.96224
lfingers 7.12502
lthumb 2.55931 36.9266
rfemur -7.05181 -4.26107 18.6684
rtibia 34.1632
rfoot -20.6649 -30.5245
rtoes -37.8033
lfemur -65.5545 9.97778 -11.6428
ltibia 60.8459
lfoot -14.3737 -2.93998
ltoes 21.4387
415
root 0.55148 15.4584 -10.2163 19.6024 0.905674 -8.21548
lowerback 7.42203 4.80377 3.11134
upperback 1.3265 6.55379 -2.17834
thorax -2.16048 3.24297 -4.559
lowerneck -7.67602 -2.88723 2.36182
upperneck -3.35469 -4.011 4.02524
head 0.267258 -1.99474 0.744886
rclavicle -1.53859e-013 1.74931e-014
rhumerus -25.115 -0.581072 -94.1448
rradius 38.1846
rwrist -2.74175
rhand -32.8749 -29.3617
rfingers 7.12502
rthumb -6.0934 300.746
lclavicle -1.53859e-013 1.74931e-014
lhumerus -39.3405 -0.656957 80.53
lradius 58.8846
lwrist 25.2469
lhand -24.5548 6.89353
lfingers 7.12502
lthumb 1.94152 36.8644
rfemur -9.03965 -4.31164 17.3833
rtibia 38.0339
rfoot -18.1418 -30.0823
rtoes -38.4681
lfemur -64.6354 10.0378 -12.5381
ltibia 60.634
lfoot -14.8218 -2.44024
ltoes 21.7974
